<?xml version="1.0" encoding="UTF-8"?>
<svg xmlns="http://www.w3.org/2000/svg" width="1600" height="900" viewBox="0 0 1600 900" fill="none" role="img" aria-label="Electronics">
  <defs>
    <linearGradient id="g200" x1="0" y1="0" x2="1600" y2="900" gradientUnits="userSpaceOnUse">
      <stop offset="0" stop-color="#F6F7FB"/>
      <stop offset="1" stop-color="#EEF0FA"/>
    </linearGradient>
    <linearGradient id="g200-accent" x1="0" y1="900" x2="1600" y2="0" gradientUnits="userSpaceOnUse">
      <stop offset="0" stop-color="#676E9F" stop-opacity="0.18"/>
      <stop offset="1" stop-color="#2E3354" stop-opacity="0.10"/>
    </linearGradient>
    <pattern id="g200-grid" width="48" height="48" patternUnits="userSpaceOnUse">
      <path d="M48 0H0V48" stroke="rgba(103,110,159,0.20)" stroke-width="1"/>
    </pattern>
    <filter id="g200-shadow" x="-20%" y="-20%" width="140%" height="140%">
      <feDropShadow dx="0" dy="10" stdDeviation="14" flood-color="rgba(16,22,47,0.12)"/>
    </filter>
  </defs>

  <rect x="0" y="0" width="1600" height="900" fill="url(#g200)"/>
  <rect x="0" y="0" width="1600" height="900" fill="url(#g200-grid)" opacity="0.35"/>

  <!-- Accent shapes -->
  <path d="M 992 45 C 1408 162, 1568 378, 1440 630 C 1280 882, 832 882, 640 738 C 400 558, 640 198, 992 45 Z"
        fill="url(#g200-accent)"/>

  <g filter="url(#g200-shadow)">
    <rect x="112" y="90" width="1376" height="720" rx="28" fill="#FFFFFF"/>
    <rect x="112" y="90" width="1376" height="720" rx="28" stroke="rgba(103,110,159,0.22)"/>
  </g>

  <!-- Icon -->
  <g transform="translate(224, 198)">
    
  <svg width="220" height="220" viewBox="0 0 100 100" fill="none">
    <g stroke="#676E9F" stroke-width="10" stroke-linecap="round" stroke-linejoin="round">
      
    <path d="M18 30h64v40H18z"/>
    <path d="M30 22v8M46 22v8M62 22v8M30 70v8M46 70v8M62 70v8"/>
    <path d="M38 44h24M50 36v28"/>
  
    </g>
  </svg>
  </g>

  <!-- Text -->
  <g transform="translate(224, 558)">
    <text x="0" y="0" font-family="system-ui, -apple-system, Segoe UI, Arial" font-size="59" font-weight="800" fill="#10162F" letter-spacing="-0.5">Electronics</text>
    <text x="0" y="68" font-family="system-ui, -apple-system, Segoe UI, Arial" font-size="34" font-weight="600" fill="#4B5563">Assembly • EMI • Insulation</text>
  </g>

  <!-- Corner label -->
  <g opacity="0.85">
    <rect x="1430" y="28" width="142" height="34" rx="10" fill="rgba(103,110,159,0.12)"/>
    <text x="1446" y="51" font-family="system-ui, -apple-system, Segoe UI, Arial" font-size="13" font-weight="700" fill="#676E9F">16:9</text>
  </g>
</svg>
