<?xml version="1.0" standalone="no"?>
<!DOCTYPE svg PUBLIC "-//W3C//DTD SVG 20010904//EN"
 "http://www.w3.org/TR/2001/REC-SVG-20010904/DTD/svg10.dtd">
<svg version="1.0" xmlns="http://www.w3.org/2000/svg"
 width="1024.000000pt" height="1024.000000pt" viewBox="0 240 1024.000000 620.000000"
 preserveAspectRatio="xMidYMid meet">

<g transform="translate(0.000000,1024.000000) scale(0.100000,-0.100000)"
fill="#676E9F" stroke="none">
<path d="M3997 7969 c-42 -5 -128 -23 -191 -39 -533 -137 -943 -556 -1067
-1090 -26 -110 -37 -401 -20 -521 87 -615 539 -1086 1171 -1220 151 -32 430
-33 577 -1 204 44 379 117 548 226 82 53 238 180 288 233 l27 30 -188 180
-188 181 -72 -70 c-373 -355 -912 -382 -1300 -64 -149 122 -262 304 -310 501
-26 107 -23 344 7 450 88 322 337 572 662 665 95 28 298 38 404 21 203 -33
387 -127 550 -282 l60 -57 187 183 188 183 -64 59 c-349 327 -811 484 -1269
432z"/>
<path d="M5620 7725 c0 -3 19 -29 43 -58 23 -29 110 -141 192 -249 l150 -197
638 0 637 -1 0 255 0 255 -830 0 c-456 0 -830 -2 -830 -5z"/>
<path d="M5610 6565 l0 -255 835 0 835 0 0 255 0 255 -835 0 -835 0 0 -255z"/>
<path d="M5953 5823 c-54 -69 -270 -347 -326 -420 -8 -10 158 -13 822 -13
l831 0 0 260 0 260 -629 0 -629 0 -69 -87z"/>
<path d="M873 4606 c-56 -18 -122 -58 -154 -93 -117 -124 -117 -362 -1 -494
90 -103 272 -133 420 -69 29 12 52 24 52 26 0 3 -32 86 -35 91 0 1 -21 -8 -46
-20 -35 -17 -61 -22 -126 -22 -74 0 -85 3 -125 30 -23 17 -54 51 -68 75 -21
39 -25 58 -25 135 0 97 17 146 67 191 65 60 174 72 260 30 l47 -23 25 47 26
47 -61 28 c-74 33 -191 43 -256 21z"/>
<path d="M3027 4602 c-22 -25 -21 -75 1 -95 28 -25 87 -22 106 5 36 51 7 108
-53 108 -24 0 -44 -7 -54 -18z"/>
<path d="M6067 4602 c-21 -23 -22 -61 -1 -90 11 -16 25 -22 54 -22 29 0 43 6
54 22 36 51 7 108 -53 108 -24 0 -44 -7 -54 -18z"/>
<path d="M8286 4598 c-9 -12 -16 -33 -16 -45 0 -57 92 -87 124 -41 36 51 7
108 -54 108 -29 0 -43 -6 -54 -22z"/>
<path d="M4460 4265 l0 -345 213 2 212 3 1 48 1 47 -153 0 -154 0 0 100 0 100
130 0 130 0 0 50 0 50 -130 0 -130 0 0 95 0 95 148 0 147 0 0 50 0 50 -207 0
-208 0 0 -345z"/>
<path d="M2765 4565 c-5 -2 -27 -6 -47 -10 l-38 -6 0 -64 0 -65 -35 0 c-35 0
-35 0 -35 -45 0 -45 0 -45 34 -45 l34 0 4 -157 c4 -175 14 -210 68 -238 29
-15 125 -20 167 -9 19 5 22 11 17 33 -14 62 -13 61 -54 55 -30 -5 -42 -2 -59
15 -19 19 -21 32 -21 161 l0 140 65 0 65 0 0 45 0 45 -65 0 -65 0 0 75 c0 74
-3 81 -35 70z"/>
<path d="M1487 4419 c-21 -3 -51 -18 -67 -34 l-30 -29 0 32 0 32 -57 0 -58 0
3 -250 3 -250 54 0 55 0 0 160 0 159 30 35 c32 36 65 47 111 35 25 -6 27 -4
33 30 14 83 3 94 -77 80z"/>
<path d="M1742 4404 c-96 -48 -137 -131 -130 -260 4 -96 41 -156 117 -196 46
-24 65 -28 135 -28 80 0 153 21 170 49 4 6 -2 27 -13 45 l-21 34 -37 -19 c-95
-48 -224 2 -235 91 l-3 25 163 0 162 0 6 33 c10 51 -4 122 -30 163 -37 55 -86
81 -164 86 -58 4 -74 1 -120 -23z m181 -104 c15 -16 27 -39 27 -50 0 -19 -7
-20 -110 -20 -101 0 -110 2 -110 19 0 23 36 70 64 82 40 17 99 3 129 -31z"/>
<path d="M2230 4412 c-55 -18 -55 -18 -53 -57 2 -21 4 -40 6 -42 2 -2 36 4 75
13 113 26 172 3 172 -67 0 -26 -2 -26 -81 -32 -172 -11 -257 -108 -205 -232
32 -76 145 -99 242 -50 27 14 50 25 52 25 1 0 2 -11 2 -25 0 -23 3 -25 50 -25
l50 0 0 195 c0 218 -6 247 -61 285 -44 32 -169 38 -249 12z m198 -304 c-3 -47
-7 -55 -37 -75 -66 -45 -141 -22 -141 42 0 42 26 64 87 75 96 16 94 17 91 -42z"/>
<path d="M3857 4416 c-96 -36 -149 -113 -155 -228 -6 -91 17 -155 72 -206 57
-52 100 -65 201 -60 62 3 90 10 118 27 20 12 37 26 37 29 0 4 -9 21 -19 39
l-20 31 -38 -19 c-96 -49 -216 -2 -237 94 l-7 28 166 -3 166 -3 6 23 c3 13 3
49 0 79 -7 66 -40 121 -92 153 -46 28 -144 36 -198 16z m149 -110 c19 -19 34
-43 34 -55 0 -20 -5 -21 -110 -21 -62 0 -110 4 -110 9 0 27 23 63 52 81 51 31
94 26 134 -14z"/>
<path d="M5178 4420 c-15 -4 -40 -17 -57 -29 l-29 -21 -6 25 c-6 22 -11 25
-56 25 l-50 0 0 -250 0 -250 55 0 55 0 0 164 c0 153 1 165 23 197 25 38 84 63
123 53 51 -13 59 -42 61 -234 l3 -175 55 -3 55 -3 0 193 c0 231 -10 265 -82
298 -45 20 -103 24 -150 10z"/>
<path d="M5627 4416 c-126 -46 -158 -198 -60 -276 21 -17 24 -24 14 -28 -26
-9 -61 -54 -61 -79 0 -13 11 -35 25 -49 l25 -25 -40 -38 c-33 -31 -40 -45 -40
-75 0 -52 23 -90 67 -112 31 -15 61 -19 158 -19 105 0 125 3 162 23 71 38 99
119 65 194 -26 60 -69 79 -189 87 -97 6 -125 19 -107 48 7 11 29 16 77 18 81
4 133 27 165 75 20 29 23 44 19 90 -2 30 -8 63 -12 73 -6 15 -1 17 34 17 l41
0 0 41 0 40 -87 0 c-49 -1 -117 1 -153 4 -43 3 -78 0 -103 -9z m157 -91 c36
-34 37 -105 1 -140 -57 -58 -165 -12 -165 70 0 82 103 126 164 70z m31 -407
c28 -13 43 -53 28 -77 -21 -35 -75 -52 -143 -48 -54 4 -68 9 -88 32 -26 30
-23 59 10 88 24 20 151 24 193 5z"/>
<path d="M6484 4411 c-23 -10 -45 -24 -48 -30 -10 -16 -26 -4 -26 20 0 16 -7
19 -52 19 l-53 0 2 -247 2 -248 56 -3 55 -3 0 174 c0 171 0 175 25 201 49 53
103 59 146 17 l29 -29 0 -182 0 -181 56 3 57 3 0 190 c1 210 -7 246 -65 289
-40 29 -131 32 -184 7z"/>
<path d="M6974 4406 c-90 -42 -139 -128 -137 -242 2 -156 93 -244 253 -244 53
0 87 6 115 20 68 32 69 33 45 73 l-21 36 -42 -20 c-101 -45 -215 -2 -233 89
l-6 32 165 0 165 0 6 31 c14 70 -21 168 -73 206 -66 49 -158 56 -237 19z m165
-93 c17 -16 33 -40 37 -55 l6 -28 -115 0 -116 0 10 30 c28 77 121 105 178 53z"/>
<path d="M7516 4415 c-47 -16 -100 -66 -129 -120 -31 -58 -31 -193 0 -251 27
-51 80 -98 128 -114 59 -20 193 -9 238 19 20 12 37 26 37 29 0 4 -9 21 -19 39
l-20 31 -38 -19 c-44 -23 -110 -25 -158 -5 -38 16 -75 68 -75 104 l0 23 160
-3 c180 -3 170 -8 170 82 0 52 -27 115 -61 147 -56 51 -153 67 -233 38z m133
-89 c27 -14 51 -53 51 -81 0 -12 -20 -15 -110 -15 -70 0 -110 4 -110 10 0 6 7
24 15 40 28 54 98 75 154 46z"/>
<path d="M8721 4420 c-13 -6 -36 -19 -51 -30 -36 -26 -40 -25 -40 5 0 23 -3
25 -52 25 l-53 0 3 -250 3 -250 54 0 55 0 0 165 c0 187 7 212 64 239 40 19 57
20 89 5 41 -19 47 -48 47 -234 l0 -175 61 0 61 0 -4 198 c-3 216 -9 240 -70
285 -32 24 -128 33 -167 17z"/>
<path d="M9165 4412 c-111 -52 -140 -181 -58 -264 20 -21 31 -38 25 -38 -7 0
-24 -11 -37 -25 -32 -31 -33 -79 -2 -107 l23 -20 -38 -38 c-33 -33 -38 -44
-38 -85 0 -88 65 -125 221 -125 141 0 216 39 238 124 20 82 -22 152 -107 176
-20 5 -69 10 -108 10 -53 0 -75 4 -85 16 -25 30 1 48 73 50 78 2 140 30 169
77 16 25 19 43 16 87 -3 30 -8 63 -12 73 -6 14 -1 17 34 17 l41 0 0 41 0 40
-82 0 c-46 0 -117 2 -158 5 -60 4 -83 1 -115 -14z m148 -73 c62 -28 62 -140 0
-168 -43 -20 -82 -13 -114 18 -78 78 12 197 114 150z m62 -434 c29 -28 31 -42
10 -72 -38 -55 -206 -56 -235 -3 -15 28 -12 44 11 74 19 24 26 26 105 26 77 0
87 -2 109 -25z"/>
<path d="M3020 4170 l0 -250 60 0 60 0 0 250 0 250 -60 0 -60 0 0 -250z"/>
<path d="M3214 4402 c4 -10 44 -121 90 -247 l83 -230 54 0 54 0 91 245 92 245
-50 3 c-28 2 -54 0 -58 -5 -4 -4 -32 -81 -61 -170 -29 -90 -56 -163 -59 -163
-3 0 -32 76 -65 170 l-60 170 -58 0 c-52 0 -58 -2 -53 -18z"/>
<path d="M6060 4170 l0 -250 60 0 60 0 0 250 0 250 -60 0 -60 0 0 -250z"/>
<path d="M7910 4170 l0 -250 60 0 60 0 0 169 0 169 31 26 c17 14 40 26 52 27
88 4 82 -1 87 57 l6 52 -53 0 c-44 0 -58 -5 -87 -30 l-34 -31 -7 31 c-6 29 -9
30 -61 30 l-54 0 0 -250z"/>
<path d="M8280 4170 l0 -250 60 0 60 0 0 250 0 250 -60 0 -60 0 0 -250z"/>
</g>
</svg>


