<?xml version="1.0" standalone="no"?>
<!DOCTYPE svg PUBLIC "-//W3C//DTD SVG 20010904//EN"
 "http://www.w3.org/TR/2001/REC-SVG-20010904/DTD/svg10.dtd">
<svg version="1.0" xmlns="http://www.w3.org/2000/svg"
 width="1024.000000pt" height="1024.000000pt" viewBox="0 640 1024 384"
 preserveAspectRatio="xMidYMid meet">

<!-- Symbol-only extracted from provided CE SVG; color set to CE brand (#676E9F) -->
<g transform="translate(0.000000,1024.000000) scale(0.100000,-0.100000)"
fill="#676E9F" stroke="none">
  <path d="M3997 7969 c-42 -5 -128 -23 -191 -39 -533 -137 -943 -556 -1067
  -1090 -26 -110 -37 -401 -20 -521 87 -615 539 -1086 1171 -1220 151 -32 430
  -33 577 -1 204 44 379 117 548 226 82 53 238 180 288 233 l27 30 -188 180
  -188 181 -72 -70 c-373 -355 -912 -382 -1300 -64 -149 122 -262 304 -310 501
  -26 107 -23 344 7 450 88 322 337 572 662 665 95 28 298 38 404 21 203 -33
  387 -127 550 -282 l60 -57 187 183 188 183 -64 59 c-349 327 -811 484 -1269
  432z"/>
  <path d="M5620 7725 c0 -3 19 -29 43 -58 23 -29 110 -141 192 -249 l150 -197
  638 0 637 -1 0 255 0 255 -830 0 c-456 0 -830 -2 -830 -5z"/>
  <path d="M5610 6565 l0 -255 835 0 835 0 0 255 0 255 -835 0 -835 0 0 -255z"/>
  <path d="M5953 5823 c-54 -69 -270 -347 -326 -420 -8 -10 158 -13 822 -13
  l831 0 0 260 0 260 -629 0 -629 0 -69 -87z"/>
</g>
</svg>


