<svg width="2400" height="1200" viewBox="0 0 2400 1200" fill="none" xmlns="http://www.w3.org/2000/svg">
  <defs>
    <linearGradient id="bg" x1="0" y1="0" x2="1" y2="1">
      <stop offset="0" stop-color="#ffffff"/>
      <stop offset="0.55" stop-color="#F7F8FA"/>
      <stop offset="1" stop-color="#DEE0E9"/>
    </linearGradient>
    <linearGradient id="ce" x1="0" y1="0" x2="1" y2="0">
      <stop offset="0" stop-color="#676E9F"/>
      <stop offset="1" stop-color="#565D85"/>
    </linearGradient>
    <radialGradient id="g" cx="0" cy="0" r="1" gradientUnits="userSpaceOnUse" gradientTransform="translate(1780 640) rotate(90) scale(640)">
      <stop offset="0" stop-color="#676E9F" stop-opacity="0.16"/>
      <stop offset="1" stop-color="#676E9F" stop-opacity="0"/>
    </radialGradient>
  </defs>

  <rect width="2400" height="1200" fill="url(#bg)"/>
  <circle cx="1780" cy="640" r="640" fill="url(#g)"/>

  <!-- Product catalog cards -->
  <g>
    <rect x="1420" y="230" width="820" height="160" rx="28" fill="white" fill-opacity="0.55" stroke="#676E9F" stroke-opacity="0.22" stroke-width="2"/>
    <rect x="1460" y="270" width="120" height="120" rx="22" fill="url(#ce)" fill-opacity="0.25"/>
    <rect x="1600" y="280" width="520" height="28" rx="14" fill="#151620" fill-opacity="0.65"/>
    <rect x="1600" y="324" width="420" height="22" rx="11" fill="#676E9F" fill-opacity="0.22"/>
    <rect x="1600" y="356" width="360" height="22" rx="11" fill="#676E9F" fill-opacity="0.14"/>

    <rect x="1420" y="430" width="820" height="160" rx="28" fill="white" fill-opacity="0.45" stroke="#676E9F" stroke-opacity="0.18" stroke-width="2"/>
    <rect x="1460" y="470" width="120" height="120" rx="22" fill="url(#ce)" fill-opacity="0.22"/>
    <rect x="1600" y="480" width="520" height="28" rx="14" fill="#151620" fill-opacity="0.58"/>
    <rect x="1600" y="524" width="420" height="22" rx="11" fill="#676E9F" fill-opacity="0.18"/>
    <rect x="1600" y="556" width="360" height="22" rx="11" fill="#676E9F" fill-opacity="0.12"/>
  </g>

  <!-- Decorative chevrons -->
  <g stroke="#676E9F" stroke-opacity="0.20" stroke-width="10" stroke-linecap="round" stroke-linejoin="round">
    <path d="M250 920l140-110 140 110"/>
    <path d="M250 1000l140-110 140 110"/>
  </g>
</svg>


