<svg width="2400" height="1200" viewBox="0 0 2400 1200" fill="none" xmlns="http://www.w3.org/2000/svg">
  <defs>
    <linearGradient id="bg" x1="0" y1="0" x2="1" y2="1">
      <stop offset="0" stop-color="#ffffff"/>
      <stop offset="0.6" stop-color="#F7F8FA"/>
      <stop offset="1" stop-color="#DEE0E9"/>
    </linearGradient>
    <linearGradient id="ce" x1="0" y1="0" x2="1" y2="0">
      <stop offset="0" stop-color="#676E9F"/>
      <stop offset="1" stop-color="#434A6B"/>
    </linearGradient>
    <radialGradient id="g1" cx="0" cy="0" r="1" gradientUnits="userSpaceOnUse" gradientTransform="translate(520 520) rotate(90) scale(560)">
      <stop offset="0" stop-color="#676E9F" stop-opacity="0.18"/>
      <stop offset="1" stop-color="#676E9F" stop-opacity="0"/>
    </radialGradient>
    <pattern id="grid" width="64" height="64" patternUnits="userSpaceOnUse">
      <path d="M64 0H0V64" fill="none" stroke="#676E9F" stroke-opacity="0.08" stroke-width="2"/>
    </pattern>
  </defs>

  <rect width="2400" height="1200" fill="url(#bg)"/>
  <rect width="2400" height="1200" fill="url(#grid)"/>
  <circle cx="520" cy="520" r="560" fill="url(#g1)"/>

  <!-- Industrial "robot arm" silhouette -->
  <g fill="url(#ce)" fill-opacity="0.28">
    <path d="M1680 250c120 0 220 100 220 220s-100 220-220 220-220-100-220-220 100-220 220-220Z"/>
    <path d="M1510 610h520c40 0 72 32 72 72v120c0 40-32 72-72 72h-520c-40 0-72-32-72-72V682c0-40 32-72 72-72Z"/>
  </g>

  <!-- UI chips -->
  <g>
    <rect x="280" y="250" width="420" height="78" rx="24" fill="white" fill-opacity="0.55" stroke="#676E9F" stroke-opacity="0.25" stroke-width="2"/>
    <rect x="280" y="350" width="620" height="22" rx="11" fill="#676E9F" fill-opacity="0.18"/>
    <rect x="280" y="394" width="520" height="22" rx="11" fill="#676E9F" fill-opacity="0.12"/>

    <rect x="280" y="470" width="260" height="64" rx="18" fill="url(#ce)" fill-opacity="0.40"/>
    <rect x="560" y="470" width="260" height="64" rx="18" fill="white" fill-opacity="0.45" stroke="#676E9F" stroke-opacity="0.25" stroke-width="2"/>
  </g>
</svg>


